# xmcd
#
# Track frame offsets: 
#        150
#        15877
#        29217
#        44965
#        61835
#        76785
#        90080
#        104807
#        121110
#        135702
#        149792
#        165845
#        180700
#        196312
#        209335
#        225150
#        240647
#        256387
#        268185
#
# Disc length: 3765 seconds
#
# Revision: 2
# Processed by: cddbd v1.5.2PL0 Copyright (c) Steve Scherf et al.
# Submitted via: ExactAudioCopyFreeDBPlugin 1.0
#
DISCID=040eb313
DTITLE=Bessie Smith - The Complete Recordings [Frog Records]
DYEAR=2004
DGENRE=Blues
TTITLE0=Keep it to Yourself
TTITLE1=New Orleans Hop Scop Blues
TTITLE2=See If I'll Care (take 3)
TTITLE3=See If I'll Care (take 4)
TTITLE4=Baby, Have Pity on Me
TTITLE5=On Revival Day
TTITLE6=Moan Mourners
TTITLE7=Hustlin' Dan
TTITLE8=Black Mountain Blues
TTITLE9=In the House Blues
TTITLE10=Lond Old Road
TTITLE11=Blue Blue
TTITLE12=Shipwreck Blues
TTITLE13=Need a Little Sugar in My Bowl
TTITLE14=Safety Mama
TTITLE15=Do Your Duty
TTITLE16=Gimme a Pigfoot
TTITLE17=Take Me for a Buggy Ride
TTITLE18=I'm Down in the Dumps
EXTD=
EXTT0=
EXTT1=
EXTT2=
EXTT3=
EXTT4=
EXTT5=
EXTT6=
EXTT7=
EXTT8=
EXTT9=
EXTT10=
EXTT11=
EXTT12=
EXTT13=
EXTT14=
EXTT15=
EXTT16=
EXTT17=
EXTT18=
PLAYORDER=
